<?xml version="1.0" encoding="UTF-8" standalone="no"?>
<!-- Created with Inkscape (http://www.inkscape.org/) -->

<svg
   version="1.1"
   id="svg4071"
   width="682.66669"
   height="682.66669"
   viewBox="0 0 682.66669 682.66669"
   sodipodi:docname="nodalis_Logo512.png"
   xmlns:inkscape="http://www.inkscape.org/namespaces/inkscape"
   xmlns:sodipodi="http://sodipodi.sourceforge.net/DTD/sodipodi-0.dtd"
   xmlns="http://www.w3.org/2000/svg"
   xmlns:svg="http://www.w3.org/2000/svg">
  <defs
     id="defs4075" />
  <sodipodi:namedview
     id="namedview4073"
     pagecolor="#ffffff"
     bordercolor="#000000"
     borderopacity="0.25"
     inkscape:showpageshadow="2"
     inkscape:pageopacity="0.0"
     inkscape:pagecheckerboard="0"
     inkscape:deskcolor="#d1d1d1"
     showgrid="false" />
  <g
     inkscape:groupmode="layer"
     inkscape:label="Image"
     id="g4077">
    <path
       style="fill:#000000;stroke-width:1.33333"
       d="M 0.2410745,340.61333 V -0.72001981 H 341.57442 682.90777 V 340.61333 681.94668 H 341.57442 0.2410745 Z M 354.54733,659.75001 c 5.68792,-4.24664 8.60738,-9.08802 9.32624,-15.46589 l 0.6726,-5.9672 36.84746,-21.65683 c 20.2661,-11.91125 37.98799,-22.75175 39.38196,-24.08999 2.22684,-2.13781 2.33083,-2.92488 0.85661,-6.48396 -0.92284,-2.22793 -2.81971,-4.41318 -4.21525,-4.85612 -1.76503,-0.56018 -10.95438,4.16939 -30.18994,15.53816 -42.76688,25.27647 -45.67694,26.93191 -46.2811,26.32776 -0.31099,-0.311 3.22678,-7.14681 7.86174,-15.19069 4.63495,-8.04388 13.04511,-22.87524 18.68924,-32.95857 8.82172,-15.76014 10.71971,-18.33334 13.52271,-18.33334 1.85204,0 5.40667,-1.96666 8.22824,-4.55245 4.51847,-4.14087 4.94764,-5.13537 4.74705,-11 -0.12133,-3.54615 -0.39409,-7.69235 -0.60621,-9.21376 -0.21212,-1.52142 2.59289,-8.03576 6.23336,-14.47634 8.32364,-14.72578 13.23247,-18.41542 25.54348,-19.19933 7.42296,-0.47267 8.80711,-0.97325 10.01379,-3.62164 0.77012,-1.69024 1.03345,-4.53452 0.58517,-6.3206 -0.73057,-2.91085 -1.68498,-3.31727 -9.20844,-3.92119 -13.29097,-1.06686 -18.30551,-4.40912 -26.00781,-17.33453 -13.59619,-22.81608 -15.27608,-26.30763 -14.37835,-29.88447 3.20477,-12.76881 -12.73841,-21.87119 -22.03135,-12.57825 -7.16421,7.1642 -4.02757,20.02404 5.3885,22.09215 3.16881,0.69598 5.10745,2.91952 10.11556,11.6021 9.6,16.64358 15.26517,29.2517 15.26517,33.97342 0,2.55002 -2.7894,9.77941 -6.83783,17.72184 -5.48794,10.76656 -7.52788,13.57992 -10.33333,14.25106 -11.25119,2.69162 -15.58109,8.82114 -14.39585,20.37913 l 0.7605,7.4162 -18.93249,34 c -16.45732,29.55493 -19.37945,34.05206 -22.35125,34.39821 -3.18573,0.37105 -4.68523,-1.88871 -21.99759,-33.15056 -10.21836,-18.45183 -19.31956,-33.84165 -20.22492,-34.19963 -2.7557,-1.08961 -10.40499,4.22026 -9.92504,6.88962 0.36449,2.02732 12.38169,24.19725 29.51804,54.45638 2.40688,4.25004 4.03506,8.06844 3.61818,8.48534 -0.41688,0.41688 -12.33957,-6.1314 -26.49486,-14.55174 -47.04854,-27.98701 -47.17696,-28.05445 -50.26863,-26.39984 -2.88289,1.54288 -4.92063,6.84642 -3.74075,9.7359 0.37499,0.9183 18.04392,11.78576 39.26431,24.14988 l 38.58253,22.48023 0.20994,5.35773 c 0.27085,6.91239 4.53298,13.72399 10.67945,17.06753 6.21437,3.3805 17.3623,2.92698 22.50916,-0.91572 z M 223.97711,584.08318 c 5.1597,-2.66818 8.44623,-6.71417 9.45319,-11.63766 0.82224,-4.02032 2.1134,-4.8513 21.50944,-13.8433 21.77247,-10.09372 35.80242,-17.99393 58.42858,-32.90092 7.58664,-4.99839 14.48664,-9.06669 15.33333,-9.04071 0.84669,0.026 3.03944,0.90472 4.87277,1.95275 7.23148,4.13389 19.87369,1.30465 25.36509,-5.67653 7.3273,-9.31516 6.08173,-20.38546 -3.33334,-29.62564 l -6.03174,-5.91972 v -32.89246 c 0,-35.46404 -0.12587,-34.83616 7.34078,-36.631 9.7127,-2.33476 21.10003,-8.78965 29.16016,-16.52939 l 8.39364,-8.05997 26.78576,15.66735 c 14.73218,8.61705 28.55046,16.64329 30.7073,17.83609 3.48929,1.92969 3.99251,3.02475 4.56559,9.93543 0.60433,7.28737 1.04737,8.13189 7.17876,13.68372 l 6.53468,5.91703 -0.0753,36.14754 c -0.0559,26.82916 -0.65738,40.02618 -2.33333,51.19339 -1.24188,8.27522 -2.258,15.28683 -2.258,15.58136 0,0.29454 -2.37827,1.87218 -5.28504,3.50587 -15.6886,8.81748 -9.56371,33.16041 8.35125,33.19148 16.51272,0.0287 24.29907,-19.18079 12.766,-31.49453 -2.59338,-2.76895 -2.60629,-3.17694 -0.54036,-17.09026 3.5545,-23.93824 4.8395,-47.00489 3.91014,-70.18915 l -0.88654,-22.11605 4.50894,-2.79185 c 12.92706,-8.00419 12.87701,-27.23059 -0.0936,-35.97151 -5.30508,-3.57511 -15.4933,-4.05767 -21.38152,-1.01275 -3.80588,1.96811 -4.18971,1.79287 -32.26713,-14.73211 -15.62848,-9.19814 -29.23944,-17.53989 -30.24656,-18.53721 -1.55226,-1.53716 -1.46124,-3.64324 0.59771,-13.82917 2.34468,-11.59951 2.34547,-12.4585 0.0228,-24.79047 -1.32333,-7.02603 -2.10479,-13.55968 -1.73657,-14.51922 0.3682,-0.95953 4.78196,-4.1635 9.80833,-7.11993 5.02637,-2.95643 18.13632,-10.63571 29.1332,-17.06507 l 19.99434,-11.68974 6.35249,2.28433 c 6.77505,2.43627 13.53109,2.20172 20.49813,-0.71167 3.98928,-1.66817 4.78019,-1.40204 18,6.0568 18.9749,10.70596 33.24871,19.97466 54.9555,35.68531 17.7374,12.83775 18.43048,13.51669 17.67157,17.31124 -1.01021,5.05106 2.31602,12.1872 7.35203,15.77315 12.00753,8.55013 27.83831,0.52733 27.83831,-14.10803 0,-11.41363 -8.75458,-18.91255 -20.46076,-17.52612 -6.64706,0.78724 -6.68703,0.76869 -19.49574,-9.04941 -17.21945,-13.19903 -41.42645,-28.91107 -60.43156,-39.22431 -15.328,-8.31781 -15.60203,-8.54847 -15.60203,-13.13184 0,-11.36724 -9.03242,-20.40165 -20.39717,-20.40165 -11.54995,0 -18.8072,5.98741 -21.17967,17.47374 -1.43125,6.9295 -2.08508,7.9223 -7.00092,10.63067 -2.98224,1.64305 -15.32224,8.80667 -27.42224,15.91915 -12.1,7.11248 -23.36881,13.64801 -25.04179,14.52338 -2.75881,1.44355 -3.81316,0.90016 -11.33333,-5.84096 -8.92868,-8.0037 -20.97265,-14.77677 -28.77227,-16.18041 -2.66893,-0.48031 -5.60261,-1.46852 -6.51928,-2.19601 -1.25428,-0.99546 -1.66666,-9.63982 -1.66666,-34.93634 V 211.7263 l 5.47528,-4.40006 c 5.93309,-4.76796 9.19138,-10.92966 9.19138,-17.38166 0,-3.77306 1.35375,-4.97368 17.58676,-15.59738 17.77771,-11.63462 45.49855,-26.70579 63.63299,-34.59578 l 9.88643,-4.3014 5.06047,2.58165 c 6.41436,3.27236 11.36364,3.26459 16.76092,-0.0264 5.9576,-3.63257 8.63021,-8.29971 8.73534,-15.25437 0.30492,-20.16994 -27.48946,-25.083637 -33.63988,-5.9471 -1.97614,6.14866 -1.9827,6.15359 -15.93919,11.98033 -17.52868,7.31812 -41.92674,20.56056 -61.58965,33.42876 -8.33847,5.45703 -15.89323,10.35407 -16.78836,10.88228 -0.89513,0.52823 -3.54328,-0.0303 -5.88476,-1.24109 -6.63843,-3.43287 -17.44723,-2.0618 -22.63627,2.87134 -5.42772,5.16004 -7.85147,10.0574 -7.85147,15.86447 0,6.96608 3.05294,13.16531 8.54735,17.35611 l 4.83029,3.68425 -0.35548,34.01367 c -0.39841,38.12061 0.67351,34.60771 -11.68882,38.30671 -8.91111,2.66633 -15.74043,7.00604 -25.04478,15.91476 -6.96304,6.66698 -7.08678,6.72058 -10.66666,4.62092 -61.46142,-36.04826 -58.95523,-34.34614 -58.95523,-40.0406 0,-5.46051 -3.04458,-10.8507 -8.81596,-15.60795 l -4.87158,-4.01557 0.78566,-39.7711 c 0.69845,-35.35691 2.87424,-61.52123 5.31934,-63.96634 0.37418,-0.37418 2.63696,-1.72968 5.02842,-3.01222 4.96377,-2.66211 9.22078,-9.66027 9.22078,-15.15818 0,-2.05733 -1.15034,-5.99547 -2.55634,-8.75143 -7.26302,-14.2367 -29.13746,-11.86249 -33.41423,3.62671 -1.65852,6.00669 -0.59984,10.35828 3.93472,16.17319 l 3.65173,4.68281 -1.77681,10.37422 c -2.88103,16.82141 -4.50573,42.1786 -4.50573,70.32207 v 26.34135 l -4.7279,2.78952 c -5.12881,3.02608 -9.85984,11.55302 -9.90949,17.86033 -0.0161,2.04588 1.15713,6.04535 2.6072,8.88771 5.29377,10.37665 16.22597,14.3835 27.49821,10.0786 5.02166,-1.91779 6.74555,-2.04912 9.65584,-0.73564 7.01968,3.16814 51.61357,29.88136 54.65202,32.73837 3.06691,2.88376 3.08051,3.02019 1,10.02603 -2.68297,9.03453 -2.76959,28.41151 -0.16007,35.80767 1.07203,3.03845 1.65616,6.28792 1.2981,7.22104 -0.35808,0.93313 -13.92278,9.40018 -30.14376,18.81569 -28.82154,16.72952 -29.57174,17.07244 -32.96478,15.06892 -6.375,-3.76432 -12.63331,-4.12397 -19.43176,-1.11669 l -6.23275,2.75704 -18.2371,-10.14667 c -19.30362,-10.74005 -51.00343,-31.14572 -62.37195,-40.14981 -5.95417,-4.71582 -6.90628,-6.15135 -7.64254,-11.52291 -1.05724,-7.71342 -3.81365,-11.9682 -9.502205,-14.6676 -13.41159,-6.36422 -27.31248,3.12788 -25.68794,17.54076 1.1918,10.57363 10.96393,17.36732 22.58898,15.70413 5.48847,-0.78524 6.207334,-0.44596 18.378555,8.67404 15.1673,11.365 37.4951,25.41082 59.33334,37.325 l 16,8.72904 0.69222,5.96738 c 1.41048,12.15932 9.70239,19.94479 21.24216,19.94479 11.68454,0 21.39895,-10.0199 21.39895,-22.07189 0,-2.51314 4.54603,-5.62097 27.66667,-18.91398 15.21667,-8.74868 28.98073,-16.72776 30.58681,-17.73128 2.706,-1.69078 3.34159,-1.37816 8.66667,4.26261 7.72289,8.18072 15.16341,12.83323 27.46819,17.17561 l 10.27833,3.62727 0.35604,34.25539 0.35604,34.2554 -6.18961,5.60381 c -5.55848,5.03242 -6.25874,6.32331 -6.86762,12.66006 -0.64874,6.75154 -1.00138,7.29642 -8.16644,12.6182 -17.50133,12.99898 -76.72537,44.92547 -83.33731,44.92547 -1.25594,0 -4.15316,-0.96683 -6.43826,-2.1485 -6.7569,-3.49413 -15.31922,-1.83796 -20.66704,3.99754 -3.79636,4.14254 -4.37914,5.71752 -4.37914,11.8347 0,7.94607 2.11488,11.87212 8.48895,15.75884 4.93696,3.0104 11.56445,3.28778 16.58041,0.69392 z m -37.33602,-30.40317 c 0.88,-0.88 1.59257,-3.43 1.58349,-5.66667 -0.0197,-4.8524 2.28701,-3.25304 -41.31683,-28.64699 -17.96667,-10.4634 -33.23667,-19.5633 -33.93333,-20.22202 -0.75046,-0.70956 14.54191,-1.19766 37.52401,-1.19766 33.18459,0 38.90118,0.28795 39.55523,1.99238 1.14319,2.9791 9.00435,7.3303 13.25364,7.33597 4.77541,0.007 11.1154,-3.264 12.94117,-6.67548 1.27559,-2.38345 2.80808,-2.65287 15.09034,-2.65287 16.99351,0 23.00587,2.54128 30.75631,13 2.85304,3.85 5.92213,7 6.82018,7 0.89806,0 3.17468,-1.21282 5.05918,-2.69516 l 3.42633,-2.69516 -3.40037,-7.42738 c -4.69322,-10.25131 -4.50804,-17.82962 0.68208,-27.91555 8.45068,-16.42217 16.8875,-29.24111 19.55857,-29.71729 1.46667,-0.26148 4.31667,-2.02934 6.33333,-3.92856 2.83959,-2.67423 3.66667,-4.68335 3.66667,-8.90701 0,-9.94241 -7.5316,-15.72873 -16.58412,-12.74113 -6.26321,2.06704 -8.74921,5.92408 -8.74921,13.57443 0,5.10051 -1.44703,8.99689 -7.66667,20.64388 -12.85877,24.07953 -19.24761,28.4756 -41.38378,28.4756 -9.01396,0 -10.90278,-0.40501 -13.07309,-2.80317 -6.87428,-7.59599 -16.70625,-8.64684 -23.67276,-2.53016 l -4.55575,4 h -40.1319 -40.13192 l -0.79926,-3.1845 c -0.5986,-2.38501 1.61651,-7.48968 8.82341,-20.33333 20.1884,-35.97836 25.25838,-45.53423 25.25838,-47.60691 0,-1.98008 -6.22282,-6.2086 -9.13676,-6.2086 -1.26814,0 -14.38349,21.68631 -28.95656,47.87987 -6.190155,11.12615 -7.920325,13.37464 -8.720735,11.33333 -0.54919,-1.40058 -1.0407,-21.31138 -1.09224,-44.2462 l -0.0937,-41.69967 -3.33333,-1.26733 c -2.10649,-0.80088 -4.56018,-0.80088 -6.66667,0 l -3.33333,1.26733 v 45.36207 45.36208 l -6.55418,6.33759 c -7.46186,7.21529 -9.43209,13.34201 -6.95224,21.61901 4.09231,13.65894 16.88144,19.48136 30.67153,13.96366 l 5.219075,-2.08826 25.14124,14.5764 c 13.82768,8.01702 31.14124,18.23821 38.47458,22.71375 13.47762,8.22543 17.49172,9.52799 20.4,6.61971 z M 525.3271,543.5518 c 10.76936,-6.45051 28.02885,-16.66245 38.35443,-22.69317 l 18.77374,-10.96494 4.8501,2.02649 c 19.1427,7.99833 36.97896,-8.84383 29.66037,-28.00727 -1.34196,-3.51386 -4.18575,-7.45346 -6.84368,-9.48076 l -4.54763,-3.46865 v -44.25358 c 0,-47.91237 -0.17125,-49.09658 -7.09988,-49.09658 -7.58914,0 -7.50062,-0.53056 -7.88233,47.24366 l -0.35112,43.94667 -18.90379,-33.09517 -18.9038,-33.09516 0.72762,-8.02411 c 0.6851,-7.55548 0.49204,-8.27627 -3.30586,-12.34192 -2.2184,-2.37481 -5.85845,-4.68283 -8.089,-5.12893 -4.73936,-0.94788 -6.08275,-2.3858 -12.45369,-13.3301 -8.99424,-15.4507 -9.45838,-21.4118 -2.72194,-34.95969 l 3.53932,-7.11808 -3.27776,-2.51894 c -4.74658,-3.64772 -7.74953,-3.17082 -10.33978,1.64203 -4.05028,7.52569 -11.00327,14.33876 -16.06927,15.74587 -2.6778,0.74378 -13.44491,1.35568 -23.92691,1.35976 -18.48612,0.007 -19.1661,-0.0927 -22.65305,-3.3259 -8.12104,-7.53025 -21.6221,-1.01765 -21.6221,10.43002 0,2.61247 1.50031,5.33696 4.70206,8.53871 4.08271,4.0827 5.31479,4.60261 9.35407,3.94712 2.55861,-0.4152 6.2236,-1.99112 8.14442,-3.50204 3.13936,-2.46943 5.32759,-2.74639 21.64594,-2.7397 27.9027,0.012 31.47874,1.74227 41.67265,20.1701 5.85424,10.58285 6.13757,11.5712 5.51683,19.24404 -0.6199,7.66232 -0.43643,8.30616 3.48385,12.22644 2.27601,2.27601 5.87793,4.52032 8.00427,4.98733 2.12635,0.46703 4.73816,1.86512 5.80405,3.10689 1.0659,1.24178 10.17591,16.75788 20.2445,34.48026 15.86908,27.9322 18.10858,32.59229 16.82002,35 -1.4489,2.70731 -2.38052,2.77751 -36.86056,2.77751 -21.83444,0 -36.3612,0.52829 -37.95308,1.38024 -3.04553,1.62992 -3.58029,9.46225 -0.8034,11.76686 1.16981,0.97087 13.56593,1.59519 36.33334,1.82994 l 34.55772,0.35629 -6,3.72464 c -3.3,2.04855 -19.8,11.81895 -36.66667,21.71201 -16.86667,9.89306 -31.3532,18.89486 -32.19231,20.00401 -2.84645,3.76252 0.54969,11.22601 5.10823,11.22601 1.42417,0 11.4007,-5.27769 22.17008,-11.72821 z M 169.43121,367.61334 c 6.89458,-13.37375 11.83516,-15.51558 37.14189,-16.10171 20.24035,-0.46879 20.35049,-0.45535 24.43563,2.98207 5.741,4.83073 12.226,4.66445 17.33492,-0.44447 10.70557,-10.70556 -1.83836,-28.24638 -15.19022,-21.24126 -1.60178,0.8404 -3.39216,2.3404 -3.9786,3.33334 -1.31785,2.23136 -34.84069,2.55693 -42.55901,0.41334 -7.24569,-2.01232 -12.4326,-7.0141 -19.13719,-18.45421 -5.65966,-9.65713 -5.90977,-10.51805 -5.11336,-17.60151 1.29427,-11.51125 -2.98902,-17.64766 -14.1851,-20.32217 -2.78939,-0.66633 -6.91266,-7.00967 -23.1381,-35.59621 -19.08179,-33.61901 -19.66521,-34.87229 -17.39909,-37.37631 2.21504,-2.44759 4.40025,-2.59091 39.50443,-2.59091 h 37.15968 l 1.26733,-3.33333 c 0.80088,-2.1065 0.80088,-4.56018 0,-6.66667 L 184.30709,191.28 h -36.25523 c -19.94037,0 -35.81336,-0.45 -35.27331,-1 0.54004,-0.55 17.52704,-10.6 37.74887,-22.33334 20.22184,-11.73333 37.42999,-22.38851 38.24032,-23.67817 1.96137,-3.12154 -1.51433,-9.49598 -5.49112,-10.07074 -1.81955,-0.26297 -16.28035,7.41839 -39.38252,20.91943 -44.961981,26.27603 -42.20565,24.97976 -47.401995,22.29263 -9.75888,-5.04652 -23.66288,0.0215 -28.34424,10.33151 -4.59479,10.11934 -2.51236,18.76538 6.2609,25.9947 l 5.16565,4.25658 0.66666,46.16628 c 0.59969,41.52785 0.89404,46.30959 2.92964,47.59251 1.53648,0.96834 3.4627,1.00442 6,0.1124 l 3.73703,-1.31387 0.35107,-44.96829 c 0.19309,-24.73257 0.82353,-44.9683 1.40098,-44.9683 0.57745,0 2.29755,2.56801 3.822444,5.70671 1.524901,3.13869 10.059801,18.14947 18.966461,33.35727 14.19277,24.23366 16.00643,28.00089 14.67671,30.4855 -4.08813,7.63874 2.52205,19.86723 12.13917,22.45686 4.1126,1.1074 5.62319,2.71318 10.32787,10.97873 3.03086,5.32488 6.14172,11.37065 6.91298,13.43507 2.31643,6.2002 1.58826,14.45784 -1.94404,22.0456 -1.82617,3.92281 -3.3203,7.38163 -3.3203,7.68627 0,0.74169 8.4055,5.83669 9.63957,5.84301 0.53509,0.003 2.13284,-2.24501 3.55055,-4.99501 z m 433.47656,-57.66667 c 2.56096,-2.56096 2.667,-4.4504 2.67509,-47.66667 l 0.008,-45 3.78529,-2.15294 c 4.3788,-2.4905 9.54451,-12.2407 9.5019,-17.93469 -0.0441,-5.89519 -4.47006,-14.47027 -9.21112,-17.8462 -5.83127,-4.15223 -13.20532,-4.88979 -21.00858,-2.10131 l -6.41725,2.29335 -38,-22.41287 c -20.9,-12.32708 -39.46666,-22.43517 -41.25923,-22.46244 -4.27985,-0.0651 -8.11343,6.12825 -5.94569,9.60559 0.80396,1.28966 18.04645,11.94484 38.31665,23.67817 20.2702,11.73334 36.86242,21.78334 36.87159,22.33334 0.009,0.55 -17.36221,1 -38.60308,1 -37.18818,0 -38.67238,-0.0983 -40.03952,-2.65287 -0.78088,-1.45908 -3.29486,-3.62251 -5.58663,-4.80763 -5.77279,-2.98522 -12.49491,-1.6369 -17.88499,3.58736 l -4.35706,4.22303 -14.42268,-0.61223 c -16.83409,-0.7146 -21.24714,-2.47145 -27.09213,-10.7855 -6.59586,-9.38211 -6.31749,-9.19979 -10.63637,-6.9664 -2.12213,1.0974 -4.192,2.535 -4.59971,3.19468 -0.40769,0.65966 0.75426,4.58104 2.58212,8.71416 5.39966,12.20957 4.73276,15.97993 -6.34328,35.86238 -6.97101,12.51359 -10.7665,17.94144 -13.61073,19.46443 -2.16923,1.16156 -5.61923,3.71576 -7.66667,5.67603 -6.30152,6.03321 -4.41206,16.53945 3.66366,20.37164 5.41845,2.57123 6.4812,2.56863 11.95589,-0.0293 5.16056,-2.44886 7.90809,-8.0525 6.97281,-14.2212 -0.54174,-3.57314 1.04126,-7.42534 8.84595,-21.52647 5.53889,-10.00739 11.17501,-18.4381 13.50576,-20.20239 5.65989,-4.28435 12.92579,-5.9404 26.10092,-5.94896 10.4417,-0.007 11.70292,0.27855 14.5294,3.2872 6.75215,7.18735 17.32055,7.18735 24.0727,0 l 3.09516,-3.2946 h 39.5009 c 40.58507,0 42.70093,0.26229 42.70093,5.29352 0,1.15144 -6.65216,13.78144 -14.78259,28.06667 -23.44936,41.20073 -23.25297,40.6768 -16.41467,43.79255 5.26622,2.39944 6.51031,1.87241 9.80295,-4.15274 1.70321,-3.11666 9.76369,-17.35145 17.9122,-31.63285 l 14.81544,-25.96619 0.66667,45.01602 c 0.56368,38.06228 0.97561,45.21112 2.66666,46.27909 3.16731,2.00031 6.44952,1.52108 9.33334,-1.36273 z M 299.70776,264.08 c 3.43997,-3.43997 4.53333,-5.66633 4.53333,-9.23103 0,-5.35762 -5.43155,-12.90231 -9.2886,-12.90231 -3.13256,0 -3.59176,-0.62353 -14.23789,-19.33333 -8.46744,-14.88091 -9.10371,-16.55955 -9.0969,-24 0.007,-6.96821 0.79772,-9.45993 6.13566,-19.31964 5.4981,-10.15559 6.62578,-11.43729 10.96585,-12.46371 8.84155,-2.09097 15.21371,-13.97977 11.66609,-21.76592 -1.3894,-3.04943 0.21676,-6.45639 18.16582,-38.53273 19.19398,-34.301177 19.7953,-35.188345 23.87135,-35.219445 4.76221,-0.03633 5.01652,0.341956 26.96304,40.108355 6.72038,12.17713 13.45314,23.25723 14.96169,24.62245 2.50267,2.26488 3.05584,2.30706 6.31835,0.48185 1.96654,-1.10017 3.75616,-3.24543 3.9769,-4.76722 0.23583,-1.62577 -6.72461,-15.49228 -16.87696,-33.622123 -9.50308,-16.970369 -16.94373,-30.855215 -16.53478,-30.855215 0.40896,0 4.70358,2.296646 9.54364,5.103656 4.84004,2.807011 20.41012,11.844688 34.60016,20.083725 31.3873,18.224137 31.4349,18.244317 34.89049,14.788717 3.32652,-3.32653 3.3696,-6.90501 0.11854,-9.847175 -1.38831,-1.25641 -18.93831,-11.809299 -39.00001,-23.450866 l -36.47577,-21.166487 -0.93285,-5.436389 c -1.8824,-10.970088 -8.63782,-17.830055 -19.12872,-19.424786 -10.51071,-1.597743 -23.27177,8.738295 -23.27177,18.849378 0,5.337301 3.01367,3.228251 -41.86092,29.295473 -19.05817,11.070719 -35.4133,21.276333 -36.34475,22.679139 -1.93156,2.909083 -0.1357,7.885293 3.71251,10.287113 2.28436,1.42577 6.63707,-0.90364 54.97876,-29.422692 11.63375,-6.863295 21.3904,-12.240576 21.68147,-11.949518 0.29105,0.29106 -8.02747,15.620446 -18.4856,34.0653 -13.79771,24.33481 -19.67316,33.5374 -21.41435,33.54077 -4.15881,0.008 -10.14434,3.89967 -12.24454,7.96101 -2.14306,4.14421 -2.50806,10.99018 -0.8165,15.31422 0.7265,1.85709 -0.49289,5.29876 -4.25162,12 -8.94471,15.94707 -13.17827,19.11028 -27.46845,20.52375 -8.80802,0.87122 -8.81989,0.87801 -9.24365,5.29277 -0.59236,6.17124 1.63035,8.24624 8.83327,8.24624 8.22163,0 16.94081,4.45881 21.77853,11.13709 2.17132,2.99743 7.05218,11.1678 10.84634,18.15639 5.6932,10.48648 6.91496,13.91678 6.99288,19.63344 0.0989,7.26124 2.61466,11.61936 7.97329,13.8126 5.28033,2.1612 8.91627,1.27755 13.46667,-3.27285 z"
       id="path4081" />
  </g>
</svg>
